<svg id="svg" xmlns="http://www.w3.org/2000/svg" xmlns:xlink="http://www.w3.org/1999/xlink" width="400" height="186.66666666666669" viewBox="0, 0, 400,186.66666666666669"><g id="svgg"><path id="path0" d="M32.145 24.333 C 43.276 45.567,54.638 65.779,65.127 83.000 L 77.918 104.000 83.959 103.969 L 90.000 103.937 101.616 84.302 C 112.484 65.930,136.000 23.211,136.000 21.839 C 136.000 21.499,131.380 21.396,125.732 21.611 L 115.464 22.000 100.070 47.667 C 91.603 61.783,84.374 73.305,84.005 73.271 C 83.635 73.237,76.246 61.537,67.583 47.271 L 51.833 21.333 41.203 21.333 C 30.602 21.333,30.577 21.342,32.145 24.333 M156.272 30.333 L 156.667 39.333 182.800 40.000 C 212.239 40.751,213.741 41.207,213.067 49.189 C 212.440 56.620,209.786 57.291,180.939 57.314 L 155.878 57.333 156.272 66.333 L 156.667 75.333 185.121 76.000 C 215.341 76.708,218.667 77.571,218.667 84.705 C 218.667 93.361,213.956 94.667,182.733 94.667 L 156.000 94.667 156.000 104.119 L 156.000 113.572 189.000 113.021 C 223.784 112.441,227.414 111.875,235.668 105.747 C 248.048 96.556,246.665 75.653,233.176 68.072 L 227.999 65.162 232.181 61.643 C 243.117 52.441,242.479 35.436,230.902 27.557 C 222.942 22.140,217.178 21.349,185.606 21.341 L 155.878 21.333 156.272 30.333 M258.667 67.333 L 258.667 113.333 271.333 113.333 L 284.000 113.333 284.000 67.333 L 284.000 21.333 271.333 21.333 L 258.667 21.333 258.667 67.333 M294.667 31.333 L 294.667 41.333 309.333 41.333 L 324.000 41.333 324.000 77.333 L 324.000 113.333 336.667 113.333 L 349.333 113.333 349.333 77.333 L 349.333 41.333 363.333 41.333 L 377.333 41.333 377.333 31.333 L 377.333 21.333 336.000 21.333 L 294.667 21.333 294.667 31.333 M124.832 79.227 C 114.597 97.528,113.333 100.533,113.333 106.561 L 113.333 113.333 125.333 113.333 L 137.333 113.333 137.333 86.000 C 137.333 70.967,137.108 58.667,136.832 58.667 C 136.556 58.667,131.156 67.919,124.832 79.227 M30.667 86.444 L 30.667 113.333 42.667 113.333 L 54.667 113.333 54.667 107.260 C 54.667 102.162,36.738 66.177,31.176 60.111 C 30.896 59.806,30.667 71.656,30.667 86.444 M39.105 128.610 C 27.152 133.810,29.972 145.446,44.541 151.040 C 53.885 154.627,56.623 157.865,52.745 160.745 C 49.160 163.407,44.173 163.147,37.950 159.974 C 32.998 157.450,32.564 157.424,31.001 159.562 C 25.186 167.514,49.893 173.178,58.564 165.881 C 67.207 158.609,63.266 149.144,49.769 144.761 C 42.140 142.283,39.554 140.048,40.740 136.956 C 41.953 133.795,47.137 133.147,53.434 135.369 C 59.393 137.471,60.812 137.024,61.555 132.812 C 62.440 127.795,47.435 124.987,39.105 128.610 M79.960 129.667 C 54.234 142.663,74.446 179.686,100.514 167.316 C 120.316 157.920,112.232 126.667,90.000 126.667 C 87.744 126.667,83.226 128.017,79.960 129.667 M261.293 129.667 C 239.465 140.694,248.609 170.864,273.239 169.082 C 300.797 167.089,298.980 126.667,271.333 126.667 C 269.077 126.667,264.559 128.017,261.293 129.667 M353.197 129.710 C 343.255 136.389,347.001 146.725,361.013 151.278 C 369.028 153.882,371.823 157.320,368.569 160.574 C 365.718 163.425,360.280 163.202,353.950 159.974 C 348.998 157.450,348.564 157.424,347.001 159.562 C 340.581 168.343,368.137 173.426,375.534 164.826 C 382.027 157.278,378.716 149.706,367.005 145.325 C 351.165 139.398,352.854 129.739,368.781 135.166 C 372.267 136.354,375.236 137.177,375.379 136.996 C 382.069 128.518,363.870 122.540,353.197 129.710 M120.000 148.667 L 120.000 169.333 132.667 169.333 C 145.289 169.333,145.333 169.322,145.333 166.000 C 145.333 162.786,145.022 162.667,136.667 162.667 L 128.000 162.667 128.000 145.333 L 128.000 128.000 124.000 128.000 L 120.000 128.000 120.000 148.667 M152.000 142.733 C 152.000 163.717,155.800 169.333,170.000 169.333 C 184.200 169.333,188.000 163.717,188.000 142.733 L 188.000 128.000 184.000 128.000 L 180.000 128.000 180.000 142.667 C 180.000 159.440,178.424 162.667,170.232 162.667 C 161.963 162.667,160.000 158.750,160.000 142.247 L 160.000 128.000 156.000 128.000 L 152.000 128.000 152.000 142.733 M193.333 131.333 C 193.333 134.444,193.778 134.667,200.000 134.667 L 206.667 134.667 206.667 152.000 L 206.667 169.333 210.667 169.333 L 214.667 169.333 214.667 152.000 L 214.667 134.667 221.333 134.667 C 227.556 134.667,228.000 134.444,228.000 131.333 L 228.000 128.000 210.667 128.000 L 193.333 128.000 193.333 131.333 M233.333 148.667 L 233.333 169.333 237.333 169.333 L 241.333 169.333 241.333 148.667 L 241.333 128.000 237.333 128.000 L 233.333 128.000 233.333 148.667 M301.333 148.667 L 301.333 169.333 305.333 169.333 L 309.333 169.333 309.333 155.127 L 309.333 140.921 320.029 155.127 C 329.424 167.606,331.208 169.333,334.696 169.333 L 338.667 169.333 338.667 148.667 L 338.667 128.000 334.712 128.000 L 330.757 128.000 330.378 142.071 L 330.000 156.143 319.539 142.071 C 310.438 129.831,308.573 128.000,305.205 128.000 L 301.333 128.000 301.333 148.667 M95.202 135.192 C 106.205 139.790,107.163 156.308,96.704 161.074 C 79.602 168.866,67.230 144.089,84.019 135.669 C 89.619 132.860,89.619 132.860,95.202 135.192 M276.535 135.192 C 290.566 141.055,286.474 162.667,271.333 162.667 C 256.391 162.667,252.094 141.231,265.838 135.249 C 271.096 132.961,271.193 132.960,276.535 135.192 " stroke="none" fill="#222e54" fill-rule="evenodd"></path></g></svg>